# Blender 4.2.5 LTS
# www.blender.org
mtllib MaskMan_Vendor_Pack.mtl
o Happy_Mask_Salesman.001
v 20.737848 -29.921265 12.001291
v 12.603287 -28.474810 18.000399
v 12.942327 -35.727829 13.980067
v 14.648968 -37.447098 8.717429
v 13.502887 -22.736326 18.099745
v 19.971527 -20.574270 12.800726
v 15.334887 -18.552805 15.606484
v 16.935127 -16.999931 12.016873
v 18.307688 -17.656334 8.089887
v 18.967127 -21.100197 4.232053
v 18.704489 -26.654049 2.546728
v 16.809847 -34.573582 4.180506
v 22.372087 16.643747 13.997256
v 22.436487 25.277458 -4.556791
v 22.286489 29.188181 15.521914
v 22.326406 34.533607 4.053171
v -18.657513 29.008951 15.257097
v -18.478714 14.044960 1.318583
v -18.571592 16.464258 13.731250
v 22.465288 14.222969 1.583655
v -18.507433 25.098221 -4.821524
v -18.617191 34.355354 3.786927
v 12.916489 -6.257169 -12.558392
v 11.169128 -19.465681 -14.829485
v 11.679848 -7.729467 -17.898861
v 12.990968 -20.756107 -10.305605
v 19.041206 -3.011525 -12.946980
v 19.725130 17.614098 4.747447
v 23.412327 -3.417225 4.520474
v 11.417768 14.433906 -8.010800
v 18.827927 -0.656226 18.617294
v 15.940969 12.805848 16.920221
v -14.873590 -0.804164 18.399681
v -12.131353 12.683145 16.738459
v -14.661112 -3.159753 -13.166172
v -15.819750 17.458412 4.516833
v -7.314232 14.352897 -8.132283
v -19.245672 -3.602672 4.243977
v -6.564632 -19.539251 -14.918688
v -8.501752 -6.343282 -12.658862
v -7.180233 -7.805070 -17.987980
v -8.427191 -20.836639 -10.394182
v 25.658487 -14.272308 -4.372806
v 22.629847 -14.483875 5.379392
v 20.293688 -20.924007 0.690889
v 18.527929 -21.608215 -4.781176
v 23.615366 -8.789734 5.961758
v 25.829767 -5.279331 -1.617874
v 23.793049 -4.114482 3.657013
v 23.034166 -1.874294 0.161919
v 21.817129 -1.766613 -3.872516
v 19.978249 -4.454411 -7.926227
v 18.577847 -9.646909 -10.107028
v 17.725927 -17.850773 -9.137774
v -13.978071 24.317162 -10.121069
v -4.854393 23.917213 -5.544096
v -8.797353 16.669304 -6.465658
v -14.303671 14.902596 -6.116055
v -5.024471 29.619362 -4.403967
v -12.644473 32.990662 -6.715392
v -7.960793 33.807831 -3.430480
v -11.839272 35.300713 -2.653136
v -15.983114 34.602135 -2.275553
v -19.813431 31.060707 -2.275000
v -21.348713 25.538864 -3.158339
v -19.254313 17.697723 -4.951673
v -19.454952 -18.218941 8.817975
v -16.550074 -16.529541 -0.811129
v -13.486633 -23.364361 2.780515
v -11.579514 -24.743809 8.080790
v -18.134632 -10.947212 -0.482005
v -20.616148 -8.966781 7.559788
v -18.768072 -6.755211 2.542332
v -18.214632 -5.044654 6.358128
v -16.970554 -5.471965 10.371639
v -14.797993 -8.580806 13.946191
v -12.829913 -13.886085 15.263650
v -11.129670 -21.695539 12.982573
v 14.780008 3.772955 -17.421505
v 22.022888 4.707740 -10.311398
v 20.539288 -3.001317 -13.001781
v 15.806329 -5.985105 -14.519611
v 20.074488 9.967032 -8.813245
v 12.796567 11.881064 -13.074002
v 15.996248 13.204230 -8.447072
v 11.811448 13.653968 -8.776357
v 8.052728 11.983863 -9.754468
v 5.439129 7.725654 -11.227681
v 5.702087 2.206687 -13.008518
v 10.181368 -4.590905 -14.706089
v 2.270408 -34.225868 4.459929
v -9.901911 -22.412289 -10.554621
v 14.485687 -22.305984 -10.396807
v -11.389112 -30.632084 3.957213
v 15.889687 -30.513042 4.133574
v 12.909528 -22.685583 14.577345
v -8.637112 -22.780458 14.438093
v -14.204632 -4.652238 -15.155704
v -11.470791 -2.104768 -16.855328
v -14.309673 -6.845571 -18.617603
v -11.576071 -4.297849 -20.315975
v -5.849193 -7.483937 -14.354899
v -5.925512 -9.107747 -16.932827
v -7.942713 -10.994920 -15.673457
v -7.866233 -9.371106 -13.095538
v 27.252247 5.021905 10.282482
v 19.580008 5.812479 16.959099
v 22.056726 -1.895678 15.111950
v 23.844168 -4.618468 10.321629
v 18.481848 11.271440 15.312015
v 23.437288 13.470086 8.584414
v 18.612728 14.805947 11.472171
v 19.324886 15.529893 7.374679
v 20.547606 14.080070 3.612346
v 22.048809 9.955803 0.802314
v 23.554407 4.350258 0.803035
v 24.583769 -2.832229 4.860130
v -15.980234 -28.853195 -8.351007
v -8.085114 -25.269228 -13.727465
v -7.414874 -33.105438 -11.034455
v -8.899914 -35.944000 -6.197007
v -9.788313 -19.785830 -12.867464
v -16.554394 -19.494633 -7.498721
v -12.233672 -16.391090 -9.752070
v -14.065514 -15.737629 -6.007968
v -15.359512 -17.258221 -2.299189
v -15.558872 -21.389168 0.873808
v -14.531193 -27.056145 1.584990
v -11.500072 -34.243431 -1.312299
v -11.056791 19.734179 22.174784
v -18.615112 21.735804 15.587587
v -16.279993 13.775918 16.181959
v -11.225271 10.988976 16.837223
v -17.241192 27.372232 15.490725
v -10.036313 28.836298 20.037386
v -13.504635 30.987345 15.942923
v -9.378713 31.748735 16.351465
v -5.444553 30.274477 16.830442
v -2.375431 26.067575 17.123831
v -2.034312 20.271433 17.412123
v -5.763752 12.853425 17.339247
v -5.229592 8.237571 -16.254902
v 3.799608 6.624976 -11.758275
v -0.574472 -0.159143 -13.715199
v -6.183033 -1.614156 -13.626911
v 3.971689 12.110160 -9.835988
v -3.413192 16.231926 -11.660787
v 1.287527 16.300034 -8.284947
v -2.491271 17.895729 -7.307386
v -6.687193 17.409554 -7.044668
v -10.720154 14.155341 -7.538655
v -12.583989 8.915275 -9.213078
v -10.971270 1.297973 -12.095402
v -20.071915 11.624275 2.737910
v -15.602951 13.960014 -0.091191
v -15.288391 11.123154 -4.448758
v -16.152954 13.949196 4.092784
v -22.982872 3.166031 -0.164059
v -15.842552 5.902969 -6.919697
v -17.307993 -2.244694 -6.258335
v -18.489914 -5.884548 -1.893787
v -18.691832 1.444604 8.931274
v -19.105993 -5.072036 3.802231
v -17.836714 7.119065 9.781512
v -16.981512 11.789987 7.622104
vn 0.8991 -0.2993 0.3195
vn 0.5436 -0.2571 0.7990
vn 0.5672 -0.5537 0.6097
vn 0.7157 -0.6680 0.2038
vn 0.6019 0.0340 0.7978
vn 0.8517 0.3619 0.3790
vn 0.5972 0.4290 0.6777
vn 0.6766 0.6505 0.3450
vn 0.8622 0.5065 0.0092
vn 0.9774 0.1454 -0.1535
vn 0.9585 -0.1333 -0.2522
vn 0.8712 -0.4634 -0.1619
vn 0.6227 -0.3787 0.6847
vn 0.7729 -0.0696 -0.6307
vn 0.7721 0.3100 0.5547
vn 0.2924 0.9390 -0.1811
vn -0.5324 0.4098 0.7407
vn -0.7633 -0.5046 -0.4035
vn -0.3715 -0.7766 0.5088
vn 0.3771 -0.9084 -0.1804
vn -0.3676 0.3236 -0.8719
vn -0.7801 0.6130 -0.1254
vn 0.6691 0.6294 -0.3952
vn 0.4314 -0.5802 -0.6908
vn 0.5314 0.3348 -0.7781
vn 0.6064 -0.6661 -0.4342
vn 0.6496 0.1299 -0.7491
vn 0.6669 0.7422 0.0658
vn 0.9956 -0.0919 -0.0195
vn 0.1633 0.6957 -0.6995
vn 0.7190 -0.0438 0.6936
vn 0.2744 0.4439 0.8530
vn -0.5582 -0.0487 0.8283
vn -0.2906 0.6964 0.6562
vn -0.4529 0.1118 -0.8845
vn -0.6712 0.7389 -0.0588
vn -0.2680 0.6661 -0.6961
vn -0.9941 -0.1039 -0.0319
vn -0.6301 -0.4661 -0.6210
vn -0.8486 0.3553 -0.3920
vn -0.3079 0.4198 -0.8538
vn -0.3803 -0.8353 -0.3971
vn 0.9047 -0.2775 -0.3233
vn 0.8992 -0.3430 0.2718
vn 0.7969 -0.6017 0.0540
vn 0.6752 -0.6355 -0.3745
vn 0.9558 -0.0523 0.2893
vn 0.9241 0.3595 -0.1300
vn 0.8954 0.3561 0.2671
vn 0.7718 0.6359 -0.0043
vn 0.7205 0.5639 -0.4036
vn 0.7064 0.2443 -0.6644
vn 0.6234 -0.0148 -0.7817
vn 0.5945 -0.3613 -0.7184
vn -0.1394 0.0381 -0.9895
vn 0.4493 0.0312 -0.8928
vn 0.2610 -0.2666 -0.9278
vn -0.1687 -0.3809 -0.9091
vn 0.4314 0.3224 -0.8426
vn -0.0444 0.6541 -0.7551
vn 0.3396 0.6773 -0.6527
vn 0.0141 0.8680 -0.4964
vn -0.3730 0.7462 -0.5514
vn -0.5811 0.4195 -0.6974
vn -0.6680 0.1380 -0.7313
vn -0.5570 -0.1879 -0.8090
vn -0.8665 -0.4204 0.2692
vn -0.8614 -0.3878 -0.3279
vn -0.7301 -0.6656 -0.1545
vn -0.6009 -0.7549 0.2626
vn -0.9485 -0.1056 -0.2988
vn -0.9551 0.2339 0.1819
vn -0.9307 0.2985 -0.2112
vn -0.8340 0.5421 0.1027
vn -0.7703 0.4119 0.4868
vn -0.7195 0.0567 0.6922
vn -0.6093 -0.2069 0.7654
vn -0.5459 -0.5335 0.6460
vn 0.1370 0.1612 -0.9774
vn 0.6563 0.2709 -0.7042
vn 0.5692 -0.0515 -0.8206
vn 0.1953 -0.2606 -0.9455
vn 0.5502 0.5380 -0.6386
vn -0.0015 0.7373 -0.6756
vn 0.3201 0.8291 -0.4584
vn -0.0756 0.9156 -0.3950
vn -0.3871 0.7203 -0.5756
vn -0.4525 0.3833 -0.8052
vn -0.4488 0.0992 -0.8881
vn -0.2405 -0.1776 -0.9543
vn 0.0039 -0.9966 0.0823
vn -0.5085 -0.5679 -0.6472
vn 0.4405 -0.5001 -0.7455
vn -0.7731 -0.6121 0.1662
vn 0.7775 -0.6036 0.1763
vn 0.2319 -0.4649 0.8545
vn -0.2975 -0.5356 0.7904
vn -0.7769 0.2487 0.5785
vn -0.2120 0.9487 0.2348
vn -0.8114 -0.3850 -0.4397
vn 0.3002 0.4901 -0.8183
vn 0.6802 0.7318 0.0433
vn 0.3343 -0.2471 -0.9095
vn -0.4305 -0.8584 -0.2789
vn -0.3824 -0.1142 0.9169
vn 0.9681 0.1017 0.2291
vn 0.6558 0.1865 0.7315
vn 0.7644 -0.1338 0.6307
vn 0.9122 -0.3214 0.2542
vn 0.6121 0.4638 0.6405
vn 0.7053 0.7004 0.1095
vn 0.4661 0.7797 0.4180
vn 0.4416 0.8968 0.0259
vn 0.6383 0.7158 -0.2831
vn 0.8567 0.3742 -0.3549
vn 0.9260 0.0872 -0.3674
vn 0.9627 -0.2066 -0.1745
vn -0.8442 -0.3601 -0.3971
vn -0.4942 -0.1854 -0.8493
vn -0.4777 -0.5113 -0.7144
vn -0.6117 -0.7142 -0.3403
vn -0.5929 0.0891 -0.8003
vn -0.8913 0.3012 -0.3390
vn -0.6462 0.4543 -0.6133
vn -0.7594 0.6015 -0.2481
vn -0.9251 0.3764 0.0507
vn -0.9895 -0.0204 0.1431
vn -0.9324 -0.3065 0.1914
vn -0.7981 -0.6006 0.0481
vn -0.1181 -0.1100 0.9869
vn -0.6553 0.0113 0.7553
vn -0.5338 -0.3195 0.7829
vn -0.1379 -0.5141 0.8466
vn -0.5766 0.2968 0.7612
vn -0.0459 0.5346 0.8439
vn -0.3812 0.6453 0.6620
vn 0.0007 0.7846 0.6200
vn 0.3348 0.5826 0.7406
vn 0.4411 0.2084 0.8729
vn 0.4691 -0.0864 0.8789
vn 0.2896 -0.3912 0.8736
vn -0.1259 0.1864 -0.9744
vn 0.4603 0.1281 -0.8785
vn 0.2541 -0.1482 -0.9557
vn -0.1815 -0.2370 -0.9544
vn 0.4587 0.4097 -0.7886
vn 0.0026 0.7551 -0.6556
vn 0.3853 0.7398 -0.5515
vn 0.0721 0.9265 -0.3694
vn -0.3208 0.8381 -0.4413
vn -0.5471 0.5491 -0.6319
vn -0.6496 0.2829 -0.7057
vn -0.5577 -0.0356 -0.8293
vn -0.7851 0.6185 0.0333
vn -0.5741 0.7736 -0.2682
vn -0.6964 0.4808 -0.5328
vn -0.5400 0.8304 0.1371
vn -0.9850 0.0169 -0.1718
vn -0.7135 0.2174 -0.6661
vn -0.7794 -0.1262 -0.6137
vn -0.8827 -0.3873 -0.2662
vn -0.9072 -0.0860 0.4117
vn -0.9206 -0.3486 0.1758
vn -0.8715 0.2066 0.4448
vn -0.6970 0.5802 0.4213
vt 0.734920 0.791896
vt 0.654762 0.778704
vt 0.684132 0.847711
vt 0.734799 0.868587
vt 0.663068 0.727528
vt 0.734920 0.709552
vt 0.696048 0.692590
vt 0.734799 0.682587
vt 0.747083 0.966227
vt 0.796915 0.921498
vt 0.735408 0.921498
vt 0.766101 0.892939
vt 0.785119 0.966227
vt 0.099844 0.335937
vt 0.186244 0.473391
vt 0.187089 0.340727
vt 0.122340 0.470652
vt 0.378392 0.470052
vt 0.291409 0.329575
vt 0.296643 0.471816
vt 0.372179 0.349321
vt 0.221783 0.450346
vt 0.215770 0.354830
vt 0.397376 0.456835
vt 0.591503 0.464008
vt 0.585508 0.365774
vt 0.404619 0.359089
vt 0.240589 0.464960
vt 0.329324 0.330387
vt 0.248366 0.340122
vt 0.322278 0.472763
vt 0.124624 0.471113
vt 0.218174 0.291158
vt 0.131710 0.333780
vt 0.181675 0.472584
vt 0.199230 0.324531
vt 0.000000 0.419241
vt 0.445326 0.564085
vt 0.574117 0.564085
vt 0.448215 0.618595
vt 0.571108 0.618595
vt 0.544387 0.473391
vt 0.474936 0.473391
vt 0.448215 0.481016
vt 0.448215 0.682094
vt 0.571108 0.481016
vt 0.571108 0.682094
vt 0.000000 0.832789
vt 0.231945 0.832789
vt 0.000000 0.836871
vt 0.231945 0.836871
vt 0.000000 0.800868
vt 0.231945 0.800868
vt 0.000000 0.769989
vt 0.231945 0.769989
vt 0.000000 0.796374
vt 0.231945 0.796374
vt 0.663672 0.406858
vt 0.591503 0.394317
vt 0.617951 0.454583
vt 0.662900 0.473391
vt 0.599079 0.350066
vt 0.663613 0.335529
vt 0.629127 0.320210
vt 0.664288 0.312039
vt 0.799991 0.806253
vt 0.735408 0.790352
vt 0.759522 0.868705
vt 0.799289 0.892939
vt 0.742296 0.732463
vt 0.799987 0.713324
vt 0.769959 0.693439
vt 0.799824 0.682587
vt 0.319775 0.923256
vt 0.255185 0.910109
vt 0.279336 0.974545
vt 0.319113 0.994429
vt 0.262047 0.862513
vt 0.319729 0.846853
vt 0.289693 0.830592
vt 0.319553 0.821625
vt 0.771486 0.602710
vt 0.698816 0.588539
vt 0.725326 0.660497
vt 0.770902 0.682587
vt 0.706347 0.535244
vt 0.771474 0.517176
vt 0.736364 0.499222
vt 0.771149 0.489049
vt 0.359894 0.291158
vt 0.464372 0.184887
vt 0.255296 0.184887
vt 0.532017 0.291158
vt 0.599543 0.256492
vt 0.060063 0.291158
vt 0.120125 0.256492
vt 0.000000 0.176789
vt 0.187650 0.291158
vt 0.659605 0.291158
vt 0.719668 0.176789
vt 0.852913 0.291158
vt 0.986038 0.176789
vt 0.705705 0.005115
vt 0.594848 0.002984
vt 0.124819 0.002984
vt 0.013962 0.005115
vt 0.473640 0.000000
vt 0.246028 0.000000
vt 1.000000 0.005115
vt 0.149976 0.857785
vt 0.021184 0.857785
vt 0.146967 0.901131
vt 0.023953 0.901131
vt 0.000000 0.838648
vt 0.040443 0.907800
vt 0.171160 0.838648
vt 0.130597 0.907800
vt 0.007824 0.841693
vt 0.163337 0.841693
vt 0.146967 0.892433
vt 0.024073 0.892433
vt 0.724606 0.979867
vt 0.690163 0.979863
vt 0.732099 0.935113
vt 0.697642 0.935253
vt 0.679630 0.967634
vt 0.682441 0.940152
vt 0.679906 0.965046
vt 0.682749 0.937277
vt 0.771975 0.412217
vt 0.698816 0.398625
vt 0.725329 0.467828
vt 0.706344 0.347360
vt 0.771960 0.330017
vt 0.736360 0.312788
vt 0.771633 0.302904
vt 0.653786 0.791896
vt 0.574117 0.778704
vt 0.603487 0.847711
vt 0.653665 0.868587
vt 0.582423 0.727528
vt 0.653786 0.709552
vt 0.615403 0.692590
vt 0.653665 0.682587
vt 0.524994 0.791548
vt 0.445326 0.778356
vt 0.474695 0.847363
vt 0.524874 0.868239
vt 0.453631 0.727035
vt 0.524994 0.709203
vt 0.486611 0.692242
vt 0.524874 0.682094
vt 0.237190 0.933466
vt 0.171160 0.921015
vt 0.195321 0.981247
vt 0.236539 1.000000
vt 0.178014 0.876754
vt 0.237131 0.862137
vt 0.205654 0.846862
vt 0.236950 0.838648
vt 0.444335 0.704056
vt 0.405759 0.685060
vt 0.372683 0.722410
vt 0.444049 0.674767
vt 0.444349 0.793217
vt 0.364237 0.777811
vt 0.393415 0.852904
vt 0.443535 0.876276
s 1
usemtl Material01
f 1/1/1 2/2/2 3/3/3
f 1/1/1 3/3/3 4/4/4
f 1/1/1 5/5/5 2/2/2
f 5/5/5 1/1/1 6/6/6
f 7/7/7 6/6/6 8/8/8
f 6/6/6 7/7/7 5/5/5
f 9/7/9 6/6/6 10/5/10
f 6/6/6 9/7/9 8/8/8
f 1/1/1 10/5/10 6/6/6
f 10/5/10 1/1/1 11/2/11
f 12/3/12 1/1/1 4/4/4
f 11/2/11 1/1/1 12/3/12
f 13/9/13 14/10/14 15/11/15
f 15/11/15 14/10/14 16/12/16
f 17/11/17 18/13/18 19/9/19
f 20/13/20 14/10/14 13/9/13
f 21/10/21 18/13/18 22/12/22
f 22/12/22 18/13/18 17/11/17
f 23/14/23 24/15/24 25/16/25
f 23/14/23 26/17/26 24/15/24
f 27/18/27 28/19/28 29/20/29
f 30/21/30 28/19/28 27/18/27
f 29/20/29 28/19/28 31/22/31
f 31/22/31 28/19/28 32/23/32
f 33/24/33 31/25/31 32/26/32
f 33/24/33 32/26/32 34/27/34
f 35/28/35 36/29/36 37/30/37
f 35/28/35 38/31/38 36/29/36
f 34/27/34 36/29/36 33/24/33
f 33/24/33 36/29/36 38/31/38
f 39/32/39 40/33/40 41/34/41
f 42/35/42 40/36/40 39/37/39
f 26/38/26 42/39/42 24/40/24
f 24/40/24 42/39/42 39/41/39
f 37/42/37 30/43/30 35/41/35
f 35/41/35 30/43/30 27/40/27
f 25/44/25 24/45/24 41/46/41
f 41/46/41 24/45/24 39/47/39
f 13/48/13 19/49/19 20/50/20
f 20/50/20 19/49/19 18/51/18
f 15/52/15 17/53/17 13/50/13
f 13/50/13 17/53/17 19/51/19
f 16/54/16 22/55/22 17/53/17
f 16/54/16 17/53/17 15/52/15
f 14/56/14 21/57/21 16/54/16
f 16/54/16 21/57/21 22/55/22
f 20/50/20 18/51/18 14/56/14
f 14/56/14 18/51/18 21/57/21
f 43/58/43 44/59/44 45/60/45
f 43/58/43 45/60/45 46/61/46
f 43/58/43 47/62/47 44/59/44
f 47/62/47 43/58/43 48/63/48
f 49/64/49 48/63/48 50/65/50
f 48/63/48 49/64/49 47/62/47
f 51/64/51 48/63/48 52/62/52
f 48/63/48 51/64/51 50/65/50
f 43/58/43 52/62/52 48/63/48
f 52/62/52 43/58/43 53/59/53
f 54/60/54 43/58/43 46/61/46
f 53/59/53 43/58/43 54/60/54
f 55/66/55 56/67/56 57/68/57
f 55/66/55 57/68/57 58/69/58
f 55/66/55 59/70/59 56/67/56
f 59/70/59 55/66/55 60/71/60
f 61/72/61 60/71/60 62/73/62
f 60/71/60 61/72/61 59/70/59
f 63/72/63 60/71/60 64/70/64
f 60/71/60 63/72/63 62/73/62
f 55/66/55 64/70/64 60/71/60
f 64/70/64 55/66/55 65/67/65
f 66/68/66 55/66/55 58/69/58
f 65/67/65 55/66/55 66/68/66
f 67/74/67 68/75/68 69/76/69
f 67/74/67 69/76/69 70/77/70
f 67/74/67 71/78/71 68/75/68
f 71/78/71 67/74/67 72/79/72
f 73/80/73 72/79/72 74/81/74
f 72/79/72 73/80/73 71/78/71
f 75/80/75 72/79/72 76/78/76
f 72/79/72 75/80/75 74/81/74
f 67/74/67 76/78/76 72/79/72
f 76/78/76 67/74/67 77/75/77
f 78/76/78 67/74/67 70/77/70
f 77/75/77 67/74/67 78/76/78
f 79/82/79 80/83/80 81/84/81
f 79/82/79 81/84/81 82/85/82
f 79/82/79 83/86/83 80/83/80
f 83/86/83 79/82/79 84/87/84
f 85/88/85 84/87/84 86/89/86
f 84/87/84 85/88/85 83/86/83
f 87/88/87 84/87/84 88/86/88
f 84/87/84 87/88/87 86/89/86
f 79/82/79 88/86/88 84/87/84
f 88/86/88 79/82/79 89/83/89
f 90/84/90 79/82/79 82/85/82
f 89/83/89 79/82/79 90/84/90
f 91/90/91 92/91/92 93/92/93
f 91/93/91 94/94/94 92/91/92
f 91/95/91 95/96/95 96/97/96
f 91/98/91 93/92/93 95/96/95
f 91/99/91 97/100/97 94/94/94
f 91/101/91 96/102/96 97/100/97
f 33/103/33 94/94/94 97/100/97
f 33/103/33 38/104/38 94/94/94
f 29/105/29 31/106/31 95/96/95
f 95/96/95 31/106/31 96/97/96
f 93/92/93 92/91/92 35/107/35
f 93/92/93 35/107/35 27/108/27
f 95/96/95 93/92/93 29/105/29
f 29/105/29 93/92/93 27/108/27
f 31/109/31 33/103/33 96/102/96
f 96/102/96 33/103/33 97/100/97
f 35/107/35 92/91/92 38/104/38
f 38/104/38 92/91/92 94/94/94
f 40/110/40 23/111/23 41/112/41
f 41/112/41 23/111/23 25/113/25
f 28/114/28 30/115/30 36/116/36
f 36/116/36 30/115/30 37/117/37
f 28/118/28 36/119/36 34/120/34
f 28/118/28 34/120/34 32/121/32
f 98/122/98 99/123/99 100/124/100
f 100/124/100 99/123/99 101/125/101
f 102/126/102 103/126/103 101/127/101
f 102/126/102 101/127/101 99/127/99
f 103/126/103 104/128/104 100/129/100
f 103/126/103 100/129/100 101/127/101
f 104/128/104 105/128/105 100/129/100
f 100/129/100 105/128/105 98/129/98
f 105/128/105 102/126/102 99/127/99
f 105/128/105 99/127/99 98/129/98
f 106/130/106 107/131/107 108/132/108
f 106/130/106 108/132/108 109/89/109
f 106/130/106 110/133/110 107/131/107
f 110/133/110 106/130/106 111/134/111
f 112/135/112 111/134/111 113/136/113
f 111/134/111 112/135/112 110/133/110
f 114/135/114 111/134/111 115/133/115
f 111/134/111 114/135/114 113/136/113
f 106/130/106 115/133/115 111/134/111
f 115/133/115 106/130/106 116/131/116
f 117/132/117 106/130/106 109/89/109
f 116/131/116 106/130/106 117/132/117
f 118/137/118 119/138/119 120/139/120
f 118/137/118 120/139/120 121/140/121
f 118/137/118 122/141/122 119/138/119
f 122/141/122 118/137/118 123/142/123
f 124/143/124 123/142/123 125/144/125
f 123/142/123 124/143/124 122/141/122
f 126/143/126 123/142/123 127/141/127
f 123/142/123 126/143/126 125/144/125
f 118/137/118 127/141/127 123/142/123
f 127/141/127 118/137/118 128/138/128
f 129/139/129 118/137/118 121/140/121
f 128/138/128 118/137/118 129/139/129
f 130/145/130 131/146/131 132/147/132
f 130/145/130 132/147/132 133/148/133
f 130/145/130 134/149/134 131/146/131
f 134/149/134 130/145/130 135/150/135
f 136/151/136 135/150/135 137/152/137
f 135/150/135 136/151/136 134/149/134
f 138/151/138 135/150/135 139/149/139
f 135/150/135 138/151/138 137/152/137
f 130/145/130 139/149/139 135/150/135
f 139/149/139 130/145/130 140/146/140
f 141/147/141 130/145/130 133/148/133
f 140/146/140 130/145/130 141/147/141
f 142/153/142 143/154/143 144/155/144
f 142/153/142 144/155/144 145/156/145
f 142/153/142 146/157/146 143/154/143
f 146/157/146 142/153/142 147/158/147
f 148/159/148 147/158/147 149/160/149
f 147/158/147 148/159/148 146/157/146
f 150/159/150 147/158/147 151/157/151
f 147/158/147 150/159/150 149/160/149
f 142/153/142 151/157/151 147/158/147
f 151/157/151 142/153/142 152/154/152
f 153/155/153 142/153/142 145/156/145
f 152/154/152 142/153/142 153/155/153
f 154/161/154 155/162/155 156/163/156
f 155/162/155 154/161/154 157/164/157
f 156/163/156 158/165/158 154/161/154
f 158/165/158 156/163/156 159/166/159
f 158/165/158 160/167/160 161/168/161
f 158/165/158 159/166/159 160/167/160
f 162/166/162 158/165/158 163/167/163
f 163/167/163 158/165/158 161/168/161
f 164/163/164 158/165/158 162/166/162
f 158/165/158 164/163/164 154/161/154
f 154/161/154 165/162/165 157/164/157
f 165/162/165 154/161/154 164/163/164
